<svg id="Logo_SAC" data-name="Logo SAC" xmlns="http://www.w3.org/2000/svg" width="72.001" height="28" viewBox="0 0 72.001 28">
  <rect id="Background" width="72" height="28" transform="translate(0.001)" fill="none"/>
  <path id="S" d="M1633.129,144.155l.647-3.806a43.288,43.288,0,0,0,9.622,1.484c4.213,0,5.577-1.508,5.577-3.663,0-3.111-2.082-3.829-6.894-4.6-6.2-.958-9.191-2.3-9.191-7.516,0-4.045,3.423-6.87,9.287-6.87a40.138,40.138,0,0,1,9.575,1.245l-.862,3.591a30.269,30.269,0,0,0-8.689-1.389c-3.566,0-5.265,1.27-5.265,3.112,0,2.68,1.555,3.422,7.3,4.38,5.29.886,8.9,2.083,9.024,7.492.1,4.979-3.232,7.755-9.838,7.66A43.894,43.894,0,0,1,1633.129,144.155Z" transform="translate(-1632.89 -118.261)" fill="#e9b425"/>
  <path id="A" d="M1924.233,129.626a38.712,38.712,0,0,1,6.056.622v-.762c0-5.05-1.8-6.893-5.913-6.893a53.106,53.106,0,0,0-9.981,1.27l-.695-3.734a64.084,64.084,0,0,1,11.3-1.149c7.112,0,9.622,4.069,9.622,9.335v9.716l.6,6.75h-3.662l-1.125-3.543-3.4,3.28a18.259,18.259,0,0,1-5.912.646c-5.051,0-8.522-1.867-8.522-7.66C1912.6,131.469,1917.031,129.626,1924.233,129.626Zm-1.843,12.016a17.21,17.21,0,0,0,7.9-1.771v-6.822h-6.272c-5.05,0-6.894,1.173-6.894,4.524,0,3.207,1.966,4.069,5.27,4.069Z" transform="translate(-1888.917 -118.069)" fill="#e9b425"/>
  <path id="C" d="M2246.542,127.851a5.84,5.84,0,0,0-1.6-3.734,5.583,5.583,0,0,0-4.357-1.675c-4.859,0-7.012,3.3-7.012,9.526,0,3.542.67,5.793,1.939,7.348a6.782,6.782,0,0,0,5.721,2.178,22.24,22.24,0,0,0,7.9-1.652l1.173,3.519a29.1,29.1,0,0,1-4.021,1.173,30.256,30.256,0,0,1-5.41.55c-7.851-.024-11.729-3.95-11.729-13.189,0-9.287,4.6-13.069,11.465-13a10.162,10.162,0,0,1,7.2,2.417,9.536,9.536,0,0,1,2.849,5.937Z" transform="translate(-2178.657 -117.994)" fill="#e9b425"/>
</svg>
